<?xml version="1.0"?>
<svg xmlns="http://www.w3.org/2000/svg" xmlns:xlink="http://www.w3.org/1999/xlink" version="1.1" id="Layer_1" x="0px" y="0px" viewBox="0 0 512 512" style="enable-background:new 0 0 512 512;" xml:space="preserve" width="512px" height="512px" class=""><g><rect x="106.583" y="182.754" style="fill:#000000" width="392.21" height="240.344" data-original="#524E4D" class="" data-old_color="#524E4D"/><rect x="59.901" y="136.058" style="fill:#000000" width="392.21" height="240.344" data-original="#7A7674" class="" data-old_color="#7A7674"/><rect x="13.206" y="88.914" style="fill:#000000" width="392.21" height="240.344" data-original="#BEC8D6" class="" data-old_color="#BEC8D6"/><circle style="fill:#E3E9ED" cx="124.583" cy="170.776" r="26.411" data-original="#FFE1D6" class="active-path" data-old_color="#FFE1D6"/><path style="fill:#000000" d="M123.265,230.837c-25.24,0-46.479,17.08-52.823,40.309h105.646  C169.745,247.917,148.505,230.837,123.265,230.837z" data-original="#FFFFFF" class="" data-old_color="#FFFFFF"/><g>
	<path style="fill:#FB5252" d="M123.266,209.312c10.537-0.001,20.091-4.288,27.011-11.208c6.92-6.921,11.208-16.474,11.208-27.011   l0,0c0-10.209-3.976-19.806-11.194-27.025c-7.22-7.22-16.817-11.194-27.025-11.194s-19.806,3.976-27.025,11.194   c-7.218,7.218-11.193,16.816-11.194,27.024c0,10.208,3.975,19.806,11.194,27.025C103.459,205.336,113.055,209.312,123.266,209.312z    M114.916,162.743c2.23-2.23,5.195-3.459,8.35-3.459c3.154,0,6.118,1.228,8.349,3.459c2.229,2.229,3.457,5.195,3.459,8.349   c-0.001,6.51-5.298,11.809-11.807,11.807c-3.154,0-6.12-1.228-8.35-3.457c-2.23-2.23-3.459-5.195-3.459-8.35   C111.458,167.938,112.686,164.972,114.916,162.743z" data-original="#11113F" class="" data-old_color="#11113F"/>
	<path style="fill:#FB5252" d="M233.324,221.285h112.06c3.646,0,6.948-1.479,9.338-3.868c2.39-2.39,3.868-5.692,3.868-9.338   c0-7.294-5.912-13.206-13.206-13.206h-112.06c-7.292,0.001-13.206,5.914-13.206,13.206   C220.118,215.372,226.03,221.285,233.324,221.285z" data-original="#11113F" class="" data-old_color="#11113F"/>
	<path style="fill:#FB5252" d="M233.324,173.722h56.031c3.646,0,6.948-1.478,9.338-3.868s3.868-5.692,3.868-9.338   c0-7.294-5.912-13.207-13.206-13.207h-56.031c-7.292,0.001-13.204,5.914-13.206,13.206   C220.118,167.809,226.03,173.722,233.324,173.722z" data-original="#11113F" class="" data-old_color="#11113F"/>
	<path style="fill:#FB5252" d="M233.324,271.311h112.06c3.646,0,6.949-1.479,9.338-3.868c2.39-2.39,3.868-5.692,3.868-9.338   c0-7.294-5.914-13.206-13.207-13.206h-112.06c-7.292,0.001-13.204,5.914-13.206,13.206   C220.118,265.399,226.032,271.311,233.324,271.311z" data-original="#11113F" class="" data-old_color="#11113F"/>
	<path style="fill:#FB5252" d="M498.794,168.847c-7.292,0.001-13.206,5.914-13.206,13.206v228.067H106.585   c-7.292,0.001-13.206,5.914-13.206,13.206c0,7.294,5.912,13.206,13.206,13.206h392.21c3.646,0,6.949-1.479,9.338-3.868   c2.39-2.39,3.868-5.692,3.868-9.338V182.054C512,174.76,506.088,168.847,498.794,168.847z" data-original="#11113F" class="" data-old_color="#11113F"/>
	<path style="fill:#FB5252" d="M461.443,385.974c2.39-2.39,3.868-5.692,3.868-9.338V135.364c0-7.294-5.912-13.206-13.206-13.206   c-7.292,0-13.206,5.914-13.206,13.206v228.065H59.896c-7.292,0.001-13.206,5.914-13.206,13.206c0,7.294,5.912,13.206,13.206,13.206   h392.21C455.752,389.842,459.053,388.364,461.443,385.974z" data-original="#11113F" class="" data-old_color="#11113F"/>
	<path style="fill:#FB5252" d="M71.534,285.282c7.036,1.923,14.297-2.225,16.219-9.26c4.355-15.955,18.959-27.094,35.513-27.094   s31.156,11.142,35.511,27.093c1.921,7.037,9.183,11.181,16.218,9.26c2.295-0.626,4.283-1.821,5.853-3.39   c3.243-3.243,4.703-8.086,3.408-12.828c-7.484-27.406-32.564-46.548-60.991-46.548c-28.425,0.001-53.506,19.142-60.992,46.548   C60.353,276.1,64.498,283.36,71.534,285.282z" data-original="#11113F" class="" data-old_color="#11113F"/>
	<path style="fill:#FB5252" d="M414.753,339.285c2.39-2.389,3.868-5.692,3.868-9.338V88.675c0-7.294-5.912-13.206-13.206-13.206   H13.206C5.914,75.471,0,81.383,0,88.675v241.272c0,7.293,5.912,13.206,13.206,13.206h392.21   C409.061,343.153,412.364,341.674,414.753,339.285z M392.21,316.742H26.411V101.881H392.21V316.742z" data-original="#11113F" class="" data-old_color="#11113F"/>
</g></g> </svg>
